<svg id="Layer_1" data-name="Layer 1" xmlns="http://www.w3.org/2000/svg" viewBox="0 0 293.99 265.64">
  <defs>
    <style>
      .cls-1 {
        fill: #f9ec31;
        stroke-width: 1.5px;
      }

      .cls-1, .cls-2 {
        stroke: #000;
        stroke-miterlimit: 10;
      }

      .cls-2 {
        fill: #e95cff;
        stroke-width: 1.4px;
      }
    </style>
  </defs>
  <title>pills</title>
  <g>
    <g>
      <path class="cls-1" d="M228.73,102.46c-5.5-16-20.42-25.39-33.3-20.95l-130.71,45v0c-12.14,5-17.64,21-12.29,36.61S72,188,84.66,184.41v0l130.7-45C228.26,135,234.24,118.47,228.73,102.46Z"/>
      <path class="cls-1" d="M142.51,164.54c12.88-4.43,18.87-21,13.36-37s-20.42-25.39-33.31-21"/>
    </g>
    <path class="cls-2" d="M228.73,102.46c-5.5-16-20.42-25.39-33.3-20.95l-72.87,25.07c12.89-4.44,27.8,5,33.31,21s-.48,32.58-13.36,37l72.86-25.07C228.26,135,234.24,118.47,228.73,102.46Z"/>
  </g>
</svg>
