<svg id="Layer_1" data-name="Layer 1" xmlns="http://www.w3.org/2000/svg" viewBox="0 0 544.56 570.38">
  <defs>
    <style>
      .cls-1 {
        fill: #1d6cff;
      }

      .cls-1, .cls-2, .cls-3, .cls-4 {
        stroke: #000;
        stroke-miterlimit: 10;
      }

      .cls-1, .cls-2 {
        stroke-width: 2.26px;
      }

      .cls-2 {
        fill: #fff0e8;
      }

      .cls-3 {
        fill: #f9ec31;
        stroke-width: 2.59px;
      }

      .cls-4 {
        fill: #e95cff;
        stroke-width: 1.63px;
      }
    </style>
  </defs>
  <title>pills</title>
  <g>
    <path class="cls-1" d="M468.05,210.82c-46.83,31.53-108.5,21.88-137.75-21.56S315.29,85,362.12,53.51"/>
    <circle class="cls-1" cx="422.78" cy="126.06" r="95.44"/>
  </g>
  <g>
    <path class="cls-2" d="M178.17,526.33c-46.82,31.53-108.49,21.88-137.75-21.56S25.42,400.56,72.25,369"/>
    <circle class="cls-2" cx="132.9" cy="441.57" r="95.44"/>
  </g>
  <g>
    <g>
      <path class="cls-3" d="M336.87,469.52c18.25-22.79,18.16-53.18-.19-67.88l-186.16-149,0,0c-18.44-13.13-47-6.31-64.7,15.85S67.63,320,84.47,335.12l0,.05,186.16,149C288.94,498.89,318.62,492.32,336.87,469.52Z"/>
      <path class="cls-3" d="M166.81,401.12c18.36,14.69,48,8.12,66.28-14.67s18.16-53.19-.19-67.88"/>
    </g>
    <path class="cls-4" d="M336.87,469.52c18.25-22.79,18.16-53.18-.19-67.88L232.9,318.57c18.35,14.69,18.44,45.08.19,67.88s-47.92,29.36-66.28,14.67L270.59,484.2C288.94,498.89,318.62,492.32,336.87,469.52Z"/>
  </g>
</svg>
