<svg id="Layer_1" data-name="Layer 1" xmlns="http://www.w3.org/2000/svg" viewBox="0 0 293.99 265.64">
  <defs>
    <style>
      .cls-1 {
        fill: #f9ec31;
      }

      .cls-1, .cls-2 {
        stroke: #000;
        stroke-miterlimit: 10;
        stroke-width: 1.5px;
      }

      .cls-2 {
        fill: #1d6cff;
      }
    </style>
  </defs>
  <title>pills</title>
  <g>
    <g>
      <path class="cls-1" d="M213.7,190.65c10.5-13.27,10.35-30.89-.34-39.34L105,65.55l0,0C94.2,58,77.68,62.09,67.48,75s-10.35,29.91-.54,38.61l0,0,108.41,85.75C186,207.84,203.2,203.93,213.7,190.65Z"/>
      <path class="cls-1" d="M114.9,151.58c10.69,8.45,27.86,4.54,38.36-8.73s10.35-30.89-.34-39.35"/>
    </g>
    <path class="cls-2" d="M213.7,190.65c10.5-13.27,10.35-30.89-.34-39.34L152.92,103.5c10.69,8.46,10.85,26.07.34,39.35S125.59,160,114.9,151.58l60.43,47.8C186,207.84,203.2,203.93,213.7,190.65Z"/>
  </g>
</svg>
