<svg id="Layer_1" data-name="Layer 1" xmlns="http://www.w3.org/2000/svg" viewBox="0 0 293.99 265.64">
  <defs>
    <style>
      .cls-1 {
        fill: #f9ec31;
      }

      .cls-1, .cls-2 {
        stroke: #000;
        stroke-miterlimit: 10;
        stroke-width: 1.5px;
      }

      .cls-2 {
        fill: #ff3f1d;
      }
    </style>
  </defs>
  <title>pills</title>
  <g>
    <g>
      <path class="cls-1" d="M64.44,186.59c9.77,13.83,26.71,18.67,37.84,10.8l112.91-79.73,0,0c10.27-8.16,11.06-25.15,1.56-38.58S191,60.66,179.85,67.62l0,0L66.92,147.32C55.79,155.18,54.68,172.77,64.44,186.59Z"/>
      <path class="cls-1" d="M129.86,102.87c-11.13,7.86-12.24,25.44-2.47,39.27s26.7,18.67,37.83,10.8"/>
    </g>
    <path class="cls-2" d="M64.44,186.59c9.77,13.83,26.71,18.67,37.84,10.8l62.94-44.45c-11.13,7.87-28.07,3-37.83-10.8s-8.66-31.41,2.47-39.27L66.92,147.32C55.79,155.18,54.68,172.77,64.44,186.59Z"/>
  </g>
</svg>
