<svg id="Layer_1" data-name="Layer 1" xmlns="http://www.w3.org/2000/svg" viewBox="0 0 397.47 666.15">
  <defs>
    <style>
      .cls-1 {
        fill: #9eefbf;
      }

      .cls-1, .cls-2 {
        stroke: #000;
        stroke-miterlimit: 10;
        stroke-width: 1.5px;
      }

      .cls-2 {
        fill: #ff3f1d;
      }
    </style>
  </defs>
  <title>pills</title>
  <g>
    <g>
      <path class="cls-1" d="M215,79.74C204.29,66.62,187.06,63,176.5,71.58L69.36,158.91l0,0c-9.68,8.85-9.29,25.85,1.1,38.6s27,16.56,37.59,8.86l0,0,107.14-87.34C225.79,110.48,225.68,92.86,215,79.74Z"/>
      <path class="cls-1" d="M155.5,167.78c10.56-8.61,10.46-26.23-.24-39.35s-27.93-16.77-38.49-8.16"/>
    </g>
    <path class="cls-2" d="M215,79.74C204.29,66.62,187.06,63,176.5,71.58l-59.73,48.69c10.56-8.61,27.8-5,38.49,8.16s10.8,30.74.24,39.35l59.73-48.69C225.79,110.48,225.68,92.86,215,79.74Z"/>
  </g>
  <g>
    <g>
      <path class="cls-1" d="M328.27,309.11c3.78-16.5-3.93-32.34-17.22-35.38L176.31,242.89v0c-12.93-2.2-26.1,8.55-29.77,24.59S150,299,162.64,302.61v0l134.74,30.83C310.67,336.52,324.5,325.61,328.27,309.11Z"/>
      <path class="cls-1" d="M222.26,316.29c13.29,3,27.12-7.87,30.89-24.37s-3.93-32.34-17.21-35.38"/>
    </g>
    <path class="cls-2" d="M328.27,309.11c3.78-16.5-3.93-32.34-17.22-35.38l-75.11-17.19c13.28,3,21,18.88,17.21,35.38s-17.6,27.41-30.89,24.37l75.12,17.19C310.67,336.52,324.5,325.61,328.27,309.11Z"/>
  </g>
  <g>
    <g>
      <path class="cls-2" d="M155.58,587.19c14.18,9.25,31.71,7.49,39.15-3.92L270.26,467.5l0,0c6.54-11.37,1-27.45-12.78-36.44s-30.72-7.58-38.5,3l0,0L143.39,549.78C136,561.19,141.4,577.94,155.58,587.19Z"/>
      <path class="cls-2" d="M185.5,485.24c-7.45,11.41-2,28.16,12.18,37.41s31.71,7.5,39.16-3.92"/>
    </g>
    <path class="cls-1" d="M155.58,587.19c14.18,9.25,31.71,7.49,39.15-3.92l42.11-64.54c-7.45,11.42-25,13.17-39.16,3.92s-19.63-26-12.18-37.41l-42.11,64.54C136,561.19,141.4,577.94,155.58,587.19Z"/>
  </g>
</svg>
