<svg id="Layer_1" data-name="Layer 1" xmlns="http://www.w3.org/2000/svg" viewBox="0 0 612 1146.04">
  <defs>
    <style>
      .cls-1, .cls-3 {
        fill: #fff;
      }

      .cls-2 {
        fill: #ff9500;
      }

      .cls-2, .cls-3, .cls-4, .cls-5 {
        stroke: #231f20;
        stroke-miterlimit: 10;
        stroke-width: 1.36px;
      }

      .cls-4 {
        fill: none;
      }

      .cls-5 {
        fill: #b7e0f9;
      }
    </style>
  </defs>
  <title>pills</title>
  <rect class="cls-1" x="14.62" y="73.24" width="582.41" height="85.65"/>
  <g>
    <path class="cls-2" d="M560.39,179.71l-508.77.62v834a7.17,7.17,0,0,0,1.49,4.68L57,1023.1c.12.09,17.62,8.61,17.77,8.65l35.63,9.1,44.17,6.71,74.07,6.12,77.12,1.93,96.31-3,62.71-5.92,61-11.33,16.73-5.5,12-6.5a48.23,48.23,0,0,0,5.07-5.23l.86-2.83Z"/>
    <path class="cls-3" d="M597,158.09c0,24.56-130.3,44.47-291,44.47S15,182.65,15,158.09"/>
    <ellipse class="cls-3" cx="306" cy="71.6" rx="291.03" ry="44.46"/>
    <line class="cls-4" x1="597.03" y1="73.24" x2="597.03" y2="158.89"/>
    <line class="cls-4" x1="14.97" y1="73.24" x2="14.97" y2="158.89"/>
    <g>
      <path class="cls-3" d="M82.26,267.75c-14.89-4.9-24.89-10.33-28.8-16.1-.61-.91-1.85-.45-1.85.71V849.61c0,7.4,10,14.39,27.61,20.57a2.28,2.28,0,0,0,3-2.15Z"/>
      <path class="cls-3" d="M306.05,291.51c-43.68,0-84.77-2-120.68-5.42a1,1,0,0,0-1.14,1V885.89a3.9,3.9,0,0,0,3.53,3.89c35.34,3.31,75.58,5.19,118.29,5.19,140.52,0,254.43-20.31,254.43-45.36l-.07-603.46C560.41,271.2,446.57,291.51,306.05,291.51Z"/>
    </g>
    <path class="cls-3" d="M597,136.83c0,24.55-130.3,44.46-291,44.46S15,161.38,15,136.83"/>
    <ellipse class="cls-2" cx="306" cy="1016.99" rx="254.39" ry="71.07"/>
    <g>
      <path class="cls-5" d="M82.26,267.75c-14.89-4.9-24.22-10.85-28.8-16.1-1.29-1.48-1.85-.45-1.85.71V531.29c0,7.82,11.1,15.18,30.65,21.6Z"/>
      <path class="cls-5" d="M306.05,429.6c-44.14,0-85.64-2-121.82-5.53V555.66c36.18,3.52,77.68,5.53,121.82,5.53,140.52,0,254.43-20.31,254.43-45.36V384.24C560.48,409.29,446.57,429.6,306.05,429.6Z"/>
    </g>
    <path class="cls-5" d="M306.05,802.5c-44.14,0-85.64-2-121.82-5.53v57.16c36.18,3.52,77.68,5.53,121.82,5.53,140.52,0,254.43-20.31,254.43-45.36V757.14C560.48,782.19,446.57,802.5,306.05,802.5Z"/>
  </g>
</svg>
