<svg id="Layer_1" data-name="Layer 1" xmlns="http://www.w3.org/2000/svg" viewBox="0 0 293.99 265.64">
  <defs>
    <style>
      .cls-1 {
        fill: #e95cff;
        stroke-width: 1.5px;
      }

      .cls-1, .cls-2 {
        stroke: #000;
        stroke-miterlimit: 10;
      }

      .cls-2 {
        fill: #f9ec31;
        stroke-width: 1.4px;
      }
    </style>
  </defs>
  <title>pills</title>
  <g>
    <g>
      <path class="cls-1" d="M153.57,225.13c16.76-2.36,28.81-15.21,26.92-28.7L161.23,59.55h0c-2.56-12.86-17.3-21.33-33.59-19s-28.13,14.5-27,27.57h0L119.78,205C121.68,218.46,136.81,227.49,153.57,225.13Z"/>
      <path class="cls-1" d="M109.05,128.66c1.9,13.49,17,22.52,33.79,20.16s28.81-15.2,26.91-28.7"/>
    </g>
    <path class="cls-2" d="M153.57,225.13c16.76-2.36,28.81-15.21,26.92-28.7l-10.74-76.31c1.9,13.5-10.15,26.35-26.91,28.7s-31.89-6.67-33.79-20.16L119.78,205C121.68,218.46,136.81,227.49,153.57,225.13Z"/>
  </g>
</svg>
