<svg id="Layer_1" data-name="Layer 1" xmlns="http://www.w3.org/2000/svg" viewBox="0 0 293.99 265.64">
  <defs>
    <style>
      .cls-1 {
        fill: #ff3f1d;
      }

      .cls-1, .cls-2 {
        stroke: #000;
        stroke-miterlimit: 10;
        stroke-width: 1.5px;
      }

      .cls-2 {
        fill: #f9ec31;
      }
    </style>
  </defs>
  <title>pills</title>
  <g>
    <g>
      <path class="cls-1" d="M223,176.32c7.9-15,4.53-32.26-7.53-38.62L93.26,73.2l0,0c-11.93-5.46-27.42,1.54-35.1,16.1s-4.71,31.29,6.53,38.05v0l122.25,64.49C199,198.27,215.14,191.29,223,176.32Z"/>
      <path class="cls-1" d="M118.76,156c12,6.36,28.22-.62,36.12-15.6s4.53-32.26-7.52-38.62"/>
    </g>
    <path class="cls-2" d="M223,176.32c7.9-15,4.53-32.26-7.53-38.62l-68.15-36c12,6.36,15.42,23.65,7.52,38.62s-24.07,22-36.12,15.6l68.15,35.95C199,198.27,215.14,191.29,223,176.32Z"/>
  </g>
</svg>
